<svg id="info" xmlns="http://www.w3.org/2000/svg" xmlns:xlink="http://www.w3.org/1999/xlink" width="512" height="512" viewBox="0 0 512 512">
  <defs>
    <linearGradient id="linear-gradient" x1="0.463" y1="0.758" x2="0.463" y2="0.209" gradientUnits="objectBoundingBox">
      <stop offset="0" stop-color="#d5d6d6"/>
      <stop offset="1" stop-color="#fff"/>
    </linearGradient>
    <radialGradient id="radial-gradient" cx="0.5" cy="0.5" r="0.801" gradientTransform="matrix(1, 0, 0, -1, 0, 1.136)" gradientUnits="objectBoundingBox">
      <stop offset="0" stop-color="#fff"/>
      <stop offset="1" stop-color="#bfbfbf"/>
    </radialGradient>
    <linearGradient id="linear-gradient-2" x1="1.007" y1="0.267" x2="-0.277" y2="1.481" gradientUnits="objectBoundingBox">
      <stop offset="0" stop-color="#008bf2" stop-opacity="0"/>
      <stop offset="0" stop-color="#b3b3b3" stop-opacity="0"/>
      <stop offset="1" stop-color="#d8d8d8"/>
    </linearGradient>
    <linearGradient id="linear-gradient-3" x1="0.744" y1="-0.434" x2="-0.746" y2="0.721" gradientUnits="objectBoundingBox">
      <stop offset="0" stop-color="#fff" stop-opacity="0"/>
      <stop offset="0" stop-color="#747474" stop-opacity="0"/>
      <stop offset="1" stop-color="#fff"/>
    </linearGradient>
  </defs>
  <circle id="Ellipse_1" data-name="Ellipse 1" cx="256" cy="256" r="256" fill="url(#linear-gradient)"/>
  <circle id="Ellipse_2" data-name="Ellipse 2" cx="195.84" cy="195.84" r="195.84" transform="translate(60.16 60.16)" fill="url(#radial-gradient)"/>
  <path id="Path_1" data-name="Path 1" d="M446.925,299.75A193.277,193.277,0,0,1,429.9,346.137L239.245,155.469q-7.008-6.432-7.014-15a19.61,19.61,0,0,1,7.014-15.194,25.633,25.633,0,0,1,33.51,0Z" fill="url(#linear-gradient-2)"/>
  <path id="Path_2" data-name="Path 2" d="M420.7,362.01a196.161,196.161,0,0,1-120.73,84.877c-20.634-20.582-58.253-58.112-58.381-58.214q-5.856-4.281-5.85-9.357v-157.8c0-3.9,1.882-7.078,5.645-9.549s8.64-3.7,14.618-3.7,10.906,1.229,14.81,3.7Z" fill="url(#linear-gradient-3)"/>
  <path id="Path_3" data-name="Path 3" d="M232.233,140.47a19.589,19.589,0,0,1,7.012-15.2,25.633,25.633,0,0,1,33.51,0,19.589,19.589,0,0,1,7.012,15.2q0,8.574-7.012,15a25.045,25.045,0,0,1-33.51,0Q232.233,149.041,232.233,140.47Zm3.506,238.852v-157.8q0-5.849,5.65-9.547t14.611-3.7q8.959,0,14.8,3.7t5.844,9.547v157.8q0,5.067-6.038,9.353A24.566,24.566,0,0,1,256,392.962q-8.577,0-14.417-4.287T235.739,379.322Z" fill="#383030"/>
</svg>
